<?xml version="1.0" encoding="UTF-8"?><svg id="Layer_1" xmlns="http://www.w3.org/2000/svg" viewBox="0 0 1080 1080"><defs><style>.cls-1{fill:#01505d;}.cls-2{fill:#ff4500;}</style></defs><rect class="cls-1" x="166.9" y="470.8" width="23.5" height="137"/><rect class="cls-1" x="211.9" y="510" width="23.5" height="97.8"/><path class="cls-1" d="M305.8,491.8c-15.9,0-23.5,5.4-25.3,18.8h22v21.4h-22.1v75.8h-23.3v-75.8h-9.7v-21.4h9.9c2.1-26.2,18.8-40.2,48.6-40.2v21.4Z"/><path class="cls-1" d="M387.8,545.2c-4.1-9.6-12.9-15.1-24.7-15.1s-20.3,5.5-24.5,15.1h49.1ZM385.3,577.5h25.6c-6.5,19.8-23.9,32.1-47.5,32.1s-50.7-20.3-50.7-50.7,20.3-50.3,50.7-50.3,50.5,20.2,50.5,50.3-.2,5.3-.4,7.8h-76.5c2.5,13.5,12.3,21.3,26.2,21.3s17.4-3.7,22.1-10.6"/><path class="cls-1" d="M614.9,530.1c-16.4,0-27.2,10.8-27.2,29s10.8,29,27.2,29,27-10.8,27-29-10.8-29-27-29M665.4,559.3v48.5h-23.5v-9.4c-4.7,6.1-14.7,11.2-29,11.2-28.4,0-48.7-20.3-48.7-50.7s20.3-50.3,50.5-50.3,50.7,20.3,50.7,50.7"/><path class="cls-1" d="M725.6,588c11.9,0,20.7-5.7,24.8-15.7h24.5c-5.3,22.7-23.5,37.2-49.1,37.2s-50.7-20.3-50.7-50.7,20.3-50.3,50.7-50.3,43.8,14.3,48.9,36.6h-24.5c-4.1-9.6-12.9-15.1-24.7-15.1s-27,10.8-27,29,10.8,29,27,29"/><rect class="cls-2" x="211.9" y="470.8" width="23.5" height="23.5"/><rect class="cls-2" x="540.9" y="509.7" width="23.5" height="23.5"/><rect class="cls-2" x="889.6" y="584.3" width="23.5" height="23.5"/><path class="cls-1" d="M447.4,536.8c0-3.9,4.1-6.5,11.7-6.5s18.2,2.9,28.6,11.5l5-7.3-1.6-2.2-15.3-21.4-1.5-2h-16.4,0c-21.2.5-34.1,10.8-34.1,28.4,0,35.8,53.2,25.4,53.2,42.3s-6.1,8.4-14.1,8.4-20-3.9-28.2-11.7l-12.5,18.4c6.1,5.5,19.4,14.9,40.1,14.9s38.2-10.8,38.2-30.7c0-36.6-53.2-27.6-53.2-41.9Z"/><polygon class="cls-1" points="535.9 470.8 535.9 607.8 512.4 607.8 512.4 532.3 498 532.3 496.1 529.7 485 514.2 481.3 508.9 512.4 508.9 512.4 470.8 535.9 470.8"/><path class="cls-1" d="M784.5,471h23.5v98.5l43.3-59.2h28.1l-35.3,48,35.5,49h-27.9l-21.6-30-22.2,30h-23.5v-136.3Z"/></svg>
